<?xml version="1.0" encoding="UTF-8"?>
<svg width="144" height="144" viewBox="0 0 144 144" version="1.1" xmlns="http://www.w3.org/2000/svg">
    <defs>
        <linearGradient id="gradient" x1="0%" y1="0%" x2="100%" y2="100%">
            <stop offset="0%" style="stop-color:#3B82F6;stop-opacity:1" />
            <stop offset="100%" style="stop-color:#1D4ED8;stop-opacity:1" />
        </linearGradient>
    </defs>
    <g>
        <!-- Fundo circular com gradiente -->
        <circle cx="72" cy="72" r="70" fill="url(#gradient)" />
        
        <!-- Livro (representando a Bíblia) -->
        <path d="M 42 42 
                 L 42 102 
                 Q 42 107, 47 107
                 L 102 107
                 L 102 42
                 L 47 42
                 Q 42 42, 42 47
                 Z" 
              fill="white" 
              opacity="0.9"/>
        
        <!-- Páginas do livro -->
        <path d="M 47 47
                 L 97 47
                 L 97 102
                 L 47 102
                 Q 45 102, 45 100
                 L 45 49
                 Q 45 47, 47 47
                 Z" 
              fill="#E5E7EB"/>
        
        <!-- Cruz -->
        <path d="M 65 62
                 L 79 62
                 L 79 57
                 L 65 57
                 Z
                 M 70 57
                 L 74 57
                 L 74 87
                 L 70 87
                 Z" 
              fill="#3B82F6"/>
    </g>
</svg> 